<?xml version="1.0" encoding="utf-8"?>
<!-- Generator: Adobe Illustrator 24.2.1, SVG Export Plug-In . SVG Version: 6.00 Build 0)  -->
<svg version="1.1" id="e947267e-2fd0-4612-8553-18e563890315"
	 xmlns="http://www.w3.org/2000/svg" xmlns:xlink="http://www.w3.org/1999/xlink" x="0px" y="0px" viewBox="0 0 808.8 560.4"
	 style="enable-background:new 0 0 808.8 560.4;" xml:space="preserve">
<style type="text/css">
	.st0{fill:#E6E6E6;}
	.st1{fill:#2F2E41;}
	.st2{fill:#3F3D56;}
	.st3{fill:#FFFFFF;}
	.st4{fill:#E45038;}
	.st5{fill:#0E467F;}
	.st6{fill:#FFB8B8;}
	.st7{fill:#C1DFF7;}
</style>
<path class="st0" d="M736.3,292.2c-10.9,30.8-26.1,60-45.1,86.6c-0.4,0.6-0.9,1.2-1.3,1.8l-57.7-18.7c0.3-0.6,0.5-1.3,0.8-2
	c18.2-43,127.6-305.2,116-359.9C750,4.5,786.3,153,736.3,292.2z"/>
<path class="st0" d="M702.3,382.4c-0.7,0.5-1.4,1.1-2.2,1.6l-43.3-14c0.5-0.5,1.1-1,1.8-1.7c11.3-10.6,45-42.4,77.7-76
	c35.1-36.2,68.9-74.6,72.5-91.2C808.1,204.8,786.7,320.6,702.3,382.4z"/>
<path class="st1" d="M767.5,560.4H24.9C11.1,560.4,0,549.3,0,535.5l0,0c269.2-31.3,533.3-31.3,792.4,0l0,0
	C792.4,549.3,781.3,560.4,767.5,560.4z"/>
<path class="st2" d="M792.4,537L0,535.5L91.8,381l0.4-0.7V39.7c0-17.4,14.1-31.5,31.5-31.5c0,0,0,0,0,0h540.5
	c17.4,0,31.5,14.1,31.5,31.5c0,0,0,0,0,0v342.9L792.4,537z"/>
<path class="st3" d="M123,30.2c-5.7,0-10.2,4.6-10.3,10.3V351c0,5.7,4.6,10.2,10.3,10.3h546.4c5.7,0,10.2-4.6,10.3-10.3V40.4
	c0-5.7-4.6-10.2-10.3-10.3H123z"/>
<path class="st1" d="M126.6,402.2c-1.7,0-3.3,1-4,2.6l-28.3,61.5c-1,2.2,0,4.8,2.2,5.8c0.6,0.3,1.2,0.4,1.8,0.4h595.1
	c2.4,0,4.4-2,4.4-4.4c0-0.7-0.2-1.4-0.5-2l-30.8-61.5c-0.7-1.5-2.3-2.4-3.9-2.4L126.6,402.2z"/>
<circle class="st3" cx="394" cy="18.5" r="6.6"/>
<path class="st1" d="M335.5,484.3c-2,0-3.7,1.3-4.2,3.3l-7.1,26.4c-0.6,2.3,0.8,4.8,3.1,5.4c0.4,0.1,0.8,0.2,1.1,0.2h135
	c2.4,0,4.4-2,4.4-4.4c0-0.5-0.1-1-0.2-1.4l-9.1-26.4c-0.6-1.8-2.3-3-4.2-3L335.5,484.3z"/>
<polygon class="st1" points="695.8,375.1 695.8,381 91.8,381 92.3,380.3 92.3,375.1 "/>
<path class="st0" d="M508,85H365.5v2.6H508c14.6,0,26.5,11.8,26.5,26.5c0,14.6-11.8,26.5-26.5,26.5H292.4
	c-14.6,0-26.5-11.8-26.5-26.5c0-14.6,11.8-26.5,26.5-26.5l0,0h8.1V85h-8.1c-16,0-29.1,13-29.1,29.1c0,16,13,29.1,29.1,29.1H508
	c16,0,29.1-13,29.1-29S524.1,85.1,508,85C508,85,508,85,508,85L508,85z"/>
<path class="st0" d="M508,174.8H365.5v2.6H508c14.6,0,26.4,11.8,26.4,26.5c0,14.6-11.8,26.4-26.4,26.4H292.4
	c-14.6,0-26.5-11.8-26.5-26.5c0-14.6,11.8-26.5,26.5-26.5l0,0h8.1v-2.6h-8.1c-16,0-29.1,13-29.1,29.1c0,16,13,29.1,29.1,29.1H508
	c16,0,29.1-13,29.1-29.1C537.1,187.8,524,174.8,508,174.8z"/>
<path class="st0" d="M508,264.6H365.5v2.6H508c14.6,0,26.5,11.8,26.5,26.4c0,14.6-11.8,26.5-26.4,26.5c0,0,0,0,0,0H292.4
	c-14.6,0-26.4-11.9-26.4-26.5c0-14.6,11.8-26.4,26.4-26.4h8.1v-2.6h-8.1c-16,0-29.1,13-29.1,29.1c0,16,13,29.1,29.1,29.1H508
	c16,0,29.1-13,29.1-29.1C537.1,277.6,524,264.6,508,264.6L508,264.6z"/>
<path id="ab287899-84e3-434f-b92d-b2aaa12c9990" class="st4" d="M316.5,78.2c-4.3,0.1-7.7,3.6-7.6,7.9c0.1,4.2,3.4,7.5,7.6,7.6h33.9
	c4.3,0.1,7.8-3.3,7.9-7.6c0.1-4.3-3.3-7.8-7.6-7.9c-0.1,0-0.2,0-0.3,0H316.5z"/>
<path id="af2a4b37-a3ed-4662-953e-6f9b285406f1" class="st4" d="M316.5,169.3c-4.3,0.1-7.7,3.6-7.6,7.9c0.1,4.2,3.4,7.5,7.6,7.6
	h33.9c4.3,0.1,7.8-3.3,7.9-7.6c0.1-4.3-3.3-7.8-7.6-7.9c-0.1,0-0.2,0-0.3,0H316.5z"/>
<path id="ff7e389f-e1f1-4104-a8c8-8a888f7bdbd5" class="st4" d="M316.5,257.7c-4.3,0.1-7.7,3.6-7.6,7.9c0.1,4.2,3.4,7.5,7.6,7.6
	h33.9c4.3,0.1,7.8-3.3,7.9-7.6c0.1-4.3-3.3-7.8-7.6-7.9l0,0c-0.1,0-0.2,0-0.3,0H316.5z"/>
<path id="ab3f55ca-45f9-4d6f-a8ad-e44fa73330dd" class="st5" d="M303.1,106.4c-4.3,0.1-7.7,3.6-7.6,7.9c0.1,4.2,3.4,7.5,7.6,7.6h194
	c4.3,0.1,7.8-3.3,7.9-7.6c0.1-4.3-3.3-7.8-7.6-7.9c-0.1,0-0.2,0-0.3,0H303.1z"/>
<path id="b755e68c-1f13-420d-a9db-7573ff270e8f" class="st5" d="M303.1,196.1c-4.3,0.1-7.7,3.6-7.6,7.9c0.1,4.2,3.4,7.5,7.6,7.6h194
	c4.3,0.1,7.8-3.3,7.9-7.6c0.1-4.3-3.3-7.8-7.6-7.9c-0.1,0-0.2,0-0.3,0H303.1z"/>
<path id="f0f56a0b-ed67-4282-9bfe-4d2fc6a8304e" class="st0" d="M303.1,285.9c-4.3,0.1-7.7,3.6-7.6,7.9c0.1,4.2,3.4,7.5,7.6,7.6h194
	c4.3,0.1,7.8-3.3,7.9-7.6c0.1-4.3-3.3-7.8-7.6-7.9l0,0c-0.1,0-0.2,0-0.3,0H303.1z"/>
<circle class="st5" cx="231" cy="113.5" r="15.5"/>
<polygon class="st3" points="229.6,119.8 225.1,114 227.7,112 229.8,114.8 237,107.1 239.5,109.4 "/>
<circle class="st5" cx="231" cy="203.3" r="15.5"/>
<polygon class="st3" points="229.6,209.6 225.1,203.8 227.7,201.8 229.8,204.5 237,196.9 239.5,199.2 "/>
<circle class="st0" cx="231" cy="293.1" r="15.5"/>
<circle class="st0" cx="570.7" cy="113.5" r="15.5"/>
<circle class="st0" cx="570.7" cy="203.3" r="15.5"/>
<circle class="st0" cx="570.7" cy="293.1" r="15.5"/>
<polygon class="st3" points="229.6,299.4 225.1,293.6 227.7,291.6 229.8,294.3 237,286.7 239.5,289 "/>
<rect x="569.5" y="107.4" transform="matrix(0.7071 -0.7071 0.7071 0.7071 86.8284 436.5879)" class="st3" width="1.8" height="12.3"/>
<rect x="564.8" y="112.6" transform="matrix(0.7071 -0.7071 0.7071 0.7071 86.9619 436.9103)" class="st3" width="12.3" height="1.8"/>
<rect x="569.5" y="197.1" transform="matrix(0.7071 -0.7071 0.7071 0.7071 23.3381 462.8864)" class="st3" width="1.8" height="12.3"/>
<rect x="564.8" y="202.4" transform="matrix(0.7071 -0.7071 0.7071 0.7071 23.4717 463.2088)" class="st3" width="12.3" height="1.8"/>
<rect x="569.5" y="286.9" transform="matrix(0.7071 -0.7071 0.7071 0.7071 -40.1522 489.1849)" class="st3" width="1.8" height="12.3"/>
<rect x="564.8" y="292.1" transform="matrix(0.7071 -0.7071 0.7071 0.7071 -40.0186 489.5074)" class="st3" width="12.3" height="1.8"/>
<path class="st6" d="M234,286.9L234,286.9c5.2-3.4,6.6-10.4,3.2-15.5c-0.3-0.5-0.7-1-1.1-1.4l-14.9-16.2l-14.3,7.2l10.9,21.6
	c2.8,5.5,9.5,7.7,15,4.9C233.3,287.3,233.6,287.1,234,286.9z"/>
<path class="st6" d="M41.7,335L41.7,335c6.1-0.7,10.5-6.3,9.8-12.4c-0.1-0.6-0.2-1.2-0.3-1.7l-5.9-21.2h-16v24.2
	c0,6.2,5,11.2,11.2,11.2C40.8,335.1,41.3,335.1,41.7,335z"/>
<polygon class="st6" points="134.2,494.8 164.5,490.1 152,477 134.2,477 "/>
<path class="st6" d="M36.9,496l31.4,8.3c-5.8-12-9.4-22.6-7.1-29.7l-14.8-1.8L36.9,496z"/>
<polygon class="st7" points="43.5,475.8 61.8,479.4 112.3,316.9 133.6,478.8 153.2,478.8 151.4,249.9 75.5,249.9 "/>
<path class="st7" d="M140,502l29.9-9.8c3.1-1,4.7-4.3,3.7-7.3c-0.1-0.3-0.2-0.5-0.3-0.8l0,0c-1-2.1-3.3-3.4-5.6-3.2l-6.8,0.5
	l-2.7-1.5c-0.7-0.4-1.7-0.2-2.1,0.6c-0.2,0.4-0.3,0.9-0.1,1.3l2.5,6l-24.9-1.8l-1.2,9.8c-0.4,3.2,1.9,6.1,5.1,6.5
	C138.3,502.4,139.2,502.3,140,502z"/>
<path class="st7" d="M38.9,506.6l32.5,2.1c3.3,0.2,6.2-2.3,6.4-5.6c0-0.3,0-0.6,0-0.9l0,0c-0.2-2.4-1.8-4.5-4.1-5.2l-6.7-2.2l-2-2.5
	c-0.6-0.7-1.6-0.8-2.3-0.2c-0.4,0.3-0.6,0.8-0.6,1.3l0.1,6.7L39,488.6l-5,9c-1.6,2.9-0.6,6.6,2.3,8.2
	C37.1,506.2,38,506.5,38.9,506.6z"/>
<circle class="st6" cx="108.1" cy="99.8" r="21.9"/>
<path class="st6" d="M93.9,140.1h30.3v-29.1H93.9C96.4,120,96.1,129.8,93.9,140.1z"/>
<path class="st5" d="M71.3,252.8l83,1.2l8.3-87.7c0-11.7-7.5-22.2-18.6-25.9l-12.8-4.4l-7.1-8.3c-9-1.9-18.8-1.5-29.1,0.6l-7.7,11.3
	l-8.3,2.7c-11.6,3.7-19.3,14.6-19,26.8C66.2,200.9,71,230.5,71.3,252.8z"/>
<path class="st5" d="M26.3,299.7l20.8,2.4l23.7-95.5l2.4-61.7l-0.7,0.3c-11.1,5.4-19.1,15.7-21.4,27.8L26.3,299.7z"/>
<path class="st5" d="M207.8,264.1l16-7.7l-47-87.7c-6.8-12.7-17.9-22.6-31.3-28l0,0l8.9,55.8L207.8,264.1z"/>
<path class="st1" d="M94.5,119.5c0,0,21.5-1.3,22-5s3.6-12.2,7.3-11.7s14-11.9,11.8-16.9s-12.6-23.4-33.9-14.9s-18.8,29.8-16.6,34.8
	S94.5,119.5,94.5,119.5z"/>
<path class="st7" d="M621.2,388.5c-0.5,0-0.9,0.3-1,0.8l-1.7,6.4c-0.2,0.6,0.2,1.2,0.8,1.3c0.1,0,0.2,0,0.3,0h32.9
	c0.6,0,1.1-0.5,1.1-1.1c0-0.1,0-0.2-0.1-0.4l-2.2-6.4c-0.1-0.4-0.6-0.7-1-0.7L621.2,388.5z"/>
<path class="st7" d="M573.2,388.5c-0.5,0-0.9,0.3-1,0.8l-1.7,6.4c-0.2,0.6,0.2,1.2,0.8,1.3c0.1,0,0.2,0,0.3,0h32.9
	c0.6,0,1.1-0.5,1.1-1.1c0-0.1,0-0.2-0.1-0.4l-2.2-6.4c-0.1-0.4-0.6-0.7-1-0.7L573.2,388.5z"/>
</svg>
