<?xml version="1.0" encoding="utf-8"?>
<!-- Generator: Adobe Illustrator 25.0.0, SVG Export Plug-In . SVG Version: 6.00 Build 0)  -->
<svg version="1.1" id="Ebene_1" xmlns="http://www.w3.org/2000/svg" xmlns:xlink="http://www.w3.org/1999/xlink" x="0px" y="0px"
	 viewBox="0 0 1942.5 146.5" style="enable-background:new 0 0 1942.5 146.5;" xml:space="preserve">
<style type="text/css">
	.st0{fill:#FFFFFF;}
	.st1{fill:#FAFAFD;}
	.st2{fill:none;stroke:#C1DFF7;stroke-miterlimit:10;}
	.st3{fill:none;stroke:#273B5C;stroke-miterlimit:10;}
	.st4{fill:#273B5C;}
</style>
<image style="display:none;overflow:visible;enable-background:new    ;" width="1920" height="688" xlink:href="../erp-home/background_1.png"  transform="matrix(1 0 0 1 16.023 -586.5314)">
</image>
<rect x="8.3" y="39.2" class="st0" width="1934.2" height="107.2"/>
<polygon class="st1" points="8.3,82 124,8.7 280.6,82 366.7,30.7 441,90.2 533.5,19.7 628.8,78.3 755.6,19 883.4,90.2 1002.5,31.6 
	1092.3,90.2 1217.8,80.1 1294.8,27.9 1378.1,80.1 1505.5,19.7 1598,81 1688.7,29.7 1778.7,99.3 1867.8,58.8 1936.5,79.2 
	1936.5,-18.5 8.3,-18.5 "/>
<polyline class="st2" points="47,73.9 80,20.8 225.7,86.7 329.2,41.8 421.7,97.7 499.6,29.9 610.4,78.5 717.6,20.8 861.6,76.3 
	971.4,20.8 1063,81.2 1186.7,69.3 1260.9,25.4 1347.9,65.7 1474.3,13.4 1580.4,67.7 1664.9,23.5 1762,97.7 1832.5,48.3 1942.5,97.7 
	"/>
<polyline class="st3" points="1936.5,79.2 1867.3,59.1 1778.5,99.4 1688.7,29.7 1598,81 1505.5,19.7 1378.1,80.1 1294.8,27.9 
	1217.8,80.1 1092.3,90.2 1002.5,31.6 883.4,90.2 756.1,18.8 628.8,78.3 533.5,19.7 441,90.2 366.7,30.7 280.6,82 124,8.7 15.5,77.4 
	"/>
<ellipse transform="matrix(0.9951 -9.853751e-02 9.853751e-02 0.9951 -0.3378 12.3047)" class="st4" cx="124.4" cy="9.6" rx="3.8" ry="3.8"/>
<circle class="st4" cx="280.3" cy="81" r="3.8"/>
<circle class="st4" cx="367" cy="31.2" r="3.8"/>
<circle class="st4" cx="440.6" cy="88.9" r="3.8"/>
<circle class="st4" cx="533.8" cy="19.5" r="3.8"/>
<circle class="st4" cx="628.9" cy="75.9" r="3.8"/>
<circle class="st4" cx="756.2" cy="18.6" r="3.8"/>
<circle class="st4" cx="883.6" cy="89.2" r="3.8"/>
<circle class="st4" cx="1002.6" cy="31.7" r="3.8"/>
<circle class="st4" cx="1092.4" cy="89.7" r="3.8"/>
<circle class="st4" cx="1218.8" cy="79.6" r="3.8"/>
<circle class="st4" cx="1294.7" cy="26.8" r="3.8"/>
<circle class="st4" cx="1378.7" cy="78.4" r="3.8"/>
<circle class="st4" cx="1597.4" cy="79.7" r="3.8"/>
<circle class="st4" cx="1505.4" cy="19.7" r="3.8"/>
<circle class="st4" cx="1688.3" cy="30.4" r="3.8"/>
<circle class="st4" cx="1779.5" cy="97.7" r="3.8"/>
<circle class="st4" cx="1867.4" cy="59.3" r="3.8"/>
</svg>
